<svg width="34" height="32" viewBox="0 0 34 32" fill="none" xmlns="http://www.w3.org/2000/svg">
<g id="Back Btn" clip-path="url(#clip0_85_157)">
<path id="Vector" d="M32 18C33.1046 18 34 17.1046 34 16C34 14.8955 33.1046 14 32 14V18ZM0.585787 14.5858C-0.195262 15.3669 -0.195262 16.6332 0.585785 17.4142L13.3137 30.1422C14.0948 30.9232 15.3611 30.9232 16.1421 30.1422C16.9232 29.361 16.9232 28.0948 16.1421 27.3138L4.82842 16L16.1421 4.68632C16.9232 3.90526 16.9232 2.63894 16.1421 1.85788C15.3611 1.07683 14.0948 1.07683 13.3137 1.85788L0.585787 14.5858ZM32 14H2V18H32V14Z" fill="#8B0000"/>
</g>
<defs>
<clipPath id="clip0_85_157">
<rect width="34" height="32" fill="white"/>
</clipPath>
</defs>
</svg>
