<svg width="32" height="32" viewBox="0 0 32 32" fill="none" xmlns="http://www.w3.org/2000/svg">
<g id="Close Btn" clip-path="url(#clip0_48_281)">
<path id="Vector" d="M28.9145 1.60072L2.17305 28.3422C1.60501 28.9102 1.60501 29.8312 2.17305 30.3992C2.74109 30.9673 3.66205 30.9673 4.23009 30.3992L30.9716 3.65776C31.5396 3.08972 31.5396 2.16875 30.9716 1.60072C30.4035 1.03268 29.4826 1.03268 28.9145 1.60072Z" fill="#201F21"/>
<path id="Vector_2" d="M30.9714 28.3423L4.22993 1.60078C3.6619 1.03275 2.74093 1.03275 2.1729 1.60078C1.60486 2.16882 1.60486 3.08979 2.1729 3.65782L28.9144 30.3993C29.4824 30.9673 30.4034 30.9673 30.9714 30.3993C31.5395 29.8313 31.5395 28.9103 30.9714 28.3423Z" fill="#201F21"/>
</g>
<defs>
<clipPath id="clip0_48_281">
<rect width="32" height="32" fill="white"/>
</clipPath>
</defs>
</svg>
