<svg xmlns="http://www.w3.org/2000/svg" width="32.657" height="34.338" viewBox="0 0 32.657 34.338">
  <path id="play" d="M23.594,8.474v-.15A8.334,8.334,0,0,0,15.27,0H9.324A8.334,8.334,0,0,0,1,8.324v8.167a9.463,9.463,0,0,0,1.724,5.462l.654.933v.9A4.757,4.757,0,0,0,8.135,28.54h10.7a4.757,4.757,0,0,0,4.757-4.757v-.762l.61-.579a9.552,9.552,0,0,0,2.957-6.894V13.081a4.766,4.766,0,0,0-3.567-4.607ZM18.837,26.161H8.135a2.378,2.378,0,0,1-2.378-2.378H21.216A2.378,2.378,0,0,1,18.837,26.161Zm5.946-10.613a7.167,7.167,0,0,1-2.219,5.17l-.722.686H5.244l-.573-.817a7.105,7.105,0,0,1-1.293-4.1V12.442a4.733,4.733,0,0,0,2.378.639h8.324a1.189,1.189,0,0,0,0-2.378H5.757A2.378,2.378,0,0,1,3.378,8.324,5.953,5.953,0,0,1,9.324,2.378H15.27a5.953,5.953,0,0,1,5.946,5.946v.15a4.766,4.766,0,0,0-3.567,4.607v3.567a1.189,1.189,0,0,0,2.378,0V13.081a2.378,2.378,0,1,1,4.757,0Z" transform="matrix(0.966, -0.259, 0.259, 0.966, -0.966, 7.03)"/>
</svg>
